# xmcd
#
# Track frame offsets: 
#        150
#        19807
#        39171
#        54380
#        72533
#        94098
#        114085
#        130181
#        145466
#        163666
#        180015
#        197806
#        212735
#
# Disc length: 3083 seconds
#
# Revision: 0
# Processed by: cddbd v1.5.2PL0 Copyright (c) Steve Scherf et al.
# Submitted via: ExactAudioCopyFreeDBPlugin 1.0
#
DISCID=ae0c090d
DTITLE=Little Joe Ayers  - Backatchya
DYEAR=2011
DGENRE=Blues
TTITLE0=Don't Leave Me Baby
TTITLE1=I'm Sorry
TTITLE2=Anywhere I Go
TTITLE3=40 Train
TTITLE4=Do the Romp
TTITLE5=Feel Alright
TTITLE6=Do the Bump
TTITLE7=Keep Your Hands Off Her
TTITLE8=Got My Eyes On You
TTITLE9=Two Trains Running
TTITLE10=I Asked for Water
TTITLE11=44
TTITLE12=Made the Boy Love You
EXTD=
EXTT0=
EXTT1=
EXTT2=
EXTT3=
EXTT4=
EXTT5=
EXTT6=
EXTT7=
EXTT8=
EXTT9=
EXTT10=
EXTT11=
EXTT12=
PLAYORDER=
